{"title":"The Unloved [2009][TV]","uid":5430397,"size":1079275411,"categoryP":"video","categoryS":"movies","magnet":"?xt=urn:btih:e06404ee9fced41ec10d6c14ac6e4d3ed728aed3&amp;dn=The+Unloved+%5B2009%5D%5BTV%5D&amp;tr=udp%3A%2F%2Ftracker.openbittorrent.com%3A80&amp;tr=udp%3A%2F%2Fopen.demonii.com%3A1337&amp;tr=udp%3A%2F%2Ftracker.coppersurfer.tk%3A6969&amp;tr=udp%3A%2F%2Fexodus.desync.com%3A6969","seeders":0,"leechers":1,"uploader":"aszeran","files":-1,"time":1268393416,"description":"Movies : Drama : TV Rip : English\n\n &lt;a href=&quot;\nhttp://www.imdb.com/title/tt1268989/&quot; rel=&quot;nofollow&quot; target=&quot;_NEW&quot;&gt;\nhttp://www.imdb.com/title/tt1268989/&lt;/a&gt;\n\n\nLucy is eleven years old. Having been neglected by her estranged mother and father, she is placed in a children's home. Through her eyes, we follow Lucy's struggle to cope with the system. Her saving is her self-belief and her certainty that she is being watched over and protected by the holy spirit. Hers is a heroic quest for love, beauty and transcendence.\n\nWith a barebones narrative and a visual depth of compassion, this is the life of a young child, any child, caught up in the British care system. Seen through the eyes of an eleven-year-old girl, this, a child's journey and first steps into a wider world. Her desire for recognition is both low on dialogue and high on sentimental empathy of how the physical and emotional abandonment of both parent, and an indifferent system and their respective responsibilities, can isolate and do harm.\n\n\n\n\nGeneral\nComplete name : Z:SeedboxThe Unloved 2009The.Unloved.2009.H.264.[FSP].avi\nFormat : AVI\nFormat/Info : Audio Video Interleave\nFormat profile : OpenDML\nFile size : 1.01 GiB\nDuration : 1h 41mn\nOverall bit rate : 1 420 Kbps\nWriting application : MEncoder dev-SVN-rUNKNOWN-4.2.1-sjlj\nWriting library : MPlayer\n\nVideo\nFormat : h264\nCodec ID : h264\nDuration : 1h 40mn\nBit rate : 1 216 Kbps\nWidth : 720 pixels\nHeight : 406 pixels\nDisplay aspect ratio : 16/9\nFrame rate : 25.000 fps\nResolution : 24 bits\nBits/(Pixel*Frame) : 0.166\nStream size : 877 MiB (85%)\n\nAudio\nFormat : 706D\nCodec ID : 706D\nDuration : 1h 41mn\nBit rate : 192 Kbps\nChannel(s) : 2 channels\nSampling rate : 48.0 KHz\nStream size : 139 MiB (14%)\nInterleave, duration : 21 ms (0.53 video frame)\nInterleave, preload duration : 544 ms","torrent":{"xt":"urn:btih:e06404ee9fced41ec10d6c14ac6e4d3ed728aed3","amp;dn":"The+Unloved+%5B2009%5D%5BTV%5D","amp;tr":["udp%3A%2F%2Ftracker.openbittorrent.com%3A80","udp%3A%2F%2Fopen.demonii.com%3A1337","udp%3A%2F%2Ftracker.coppersurfer.tk%3A6969","udp%3A%2F%2Fexodus.desync.com%3A6969"],"infoHash":"e06404ee9fced41ec10d6c14ac6e4d3ed728aed3","infoHashBuffer":{"type":"Buffer","data":[224,100,4,238,159,206,212,30,193,13,108,20,172,110,77,62,215,40,174,211]},"announce":[],"urlList":[]}}